<svg id="图层_1" data-name="图层 1" xmlns="http://www.w3.org/2000/svg" viewBox="0 0 467.82 121.65">
  <defs>
    <style>
      .cls-1 {
        fill: #921f23;
      }

      .cls-2 {
        isolation: isolate;
      }

      .cls-3 {
        fill: #991f24;
      }
    </style>
  </defs>
  <title>登录logo</title>
  <g>
    <path class="cls-1" d="M107.19,31.18c-2.11-5.42-12-16.58-25.6-20C63.32,6.65,61,0,61,0c-1.13,3.37-6.59,6.74-10,8.59a15.57,15.57,0,0,1-5.14,1.7C39,11.26,19,17.14,13.32,37.86S0,61.24,0,61.24c7.81,3.37,10.46,14.57,11.76,21,1.48,7.33,6.24,12.5,10.79,18.44,3.8,4.95,12.24,10.17,18,10.44,13.37.63,21.09,10.5,21.09,10.5,3.06-5.28,12.94-8.46,19.23-10a48.7,48.7,0,0,0,17.48-8.16c6.05-4.52,9.17-10.59,11.11-19.92,3.29-15.75,13.79-23,13.79-23C113.6,55.29,112.27,44.24,107.19,31.18ZM103,80.53c-1.7,8.14-4.41,13.45-9.69,17.39a42.31,42.31,0,0,1-15.23,7.13c-5.48,1.34-14.1,4.11-16.76,8.72a26.54,26.54,0,0,0-18.4-9.17c-5-.23-12.35-4.79-15.66-9.12-4-5.18-8.12-9.7-9.41-16.1C16.72,73.78,14.4,64,7.59,61.07c0,0,6.66-2.42,11.62-20.42S41.64,17.43,47.53,16.56A13.94,13.94,0,0,0,52,15.06c3-1.61,7.78-4.55,8.76-7.49,0,0,2,5.83,18,9.79,11.92,3,20.49,12.7,22.33,17.43,4.44,11.4,5.6,21,14,25.67C115,60.46,105.87,66.77,103,80.53Zm-19.19-27s-1-10.46-10.92-11.44c-8-.79-13.62,6.1-13.62,6.1a11.62,11.62,0,0,0-9.18,4c-5.3,6.13-6.13,17.65,2.43,22.9,6.38,3.91,12.21,3.17,16.37.33a9.94,9.94,0,0,0,4.67-8.84V66.5a6.57,6.57,0,0,0-.15-1.25c0-.27-.11-.55-.18-.83a3.19,3.19,0,0,0-1.09-1.65,5.83,5.83,0,0,0-8.21-.63,6.2,6.2,0,0,0-.79.83,6.4,6.4,0,0,0-1.3,1.4c-.12.17-1.91.09-1.94-.39S58.68,52.32,72,55.56s8.63,25.32-3,29.28c-7.73,2.62-37.72,6.33-31.36-48.21,0,0-21.56,38.83,3.56,55.46,27.45,18.16,46.45-4,50.76-15,2.88-7.4,4.33-20.18-8.12-23.61Zm-20-21.17c-12.75,6-15,11.25-15,11.25C64.41,45.94,77.42,33.2,77.42,33.2l10.78-.7s-12.12-16-34.48-7.14C36.33,32.27,38.65,48.74,38.65,48.74,48.46,32.63,63.77,32.36,63.77,32.36Z" transform="translate(0 0.03)"/>
    <path class="cls-1" d="M83.81,53.48S82.81,43,72.89,42c-8-.79-13.62,6.1-13.62,6.1a11.62,11.62,0,0,0-9.18,4C44.79,58.27,44,69.79,52.52,75c6.38,3.91,12.21,3.17,16.37.33a9.94,9.94,0,0,0,4.67-8.84v-.08a6.57,6.57,0,0,0-.15-1.25c0-.27-.11-.55-.18-.83a3.19,3.19,0,0,0-1.09-1.65,5.83,5.83,0,0,0-8.21-.63,6.2,6.2,0,0,0-.79.83,6.4,6.4,0,0,0-1.3,1.4c-.12.17-1.91.09-1.94-.39S58.68,52.27,72,55.51s8.63,25.32-3,29.28c-7.73,2.62-37.72,6.33-31.36-48.21,0,0-21.56,38.83,3.56,55.46,27.45,18.16,46.45-4,50.76-15C94.81,69.69,96.26,56.91,83.81,53.48Zm-20-21.12c-12.75,6-15,11.25-15,11.25C64.41,45.94,77.42,33.2,77.42,33.2l10.78-.7s-12.12-16-34.48-7.14C36.33,32.27,38.65,48.74,38.65,48.74,48.46,32.63,63.77,32.36,63.77,32.36Z" transform="translate(0 0.03)"/>
    <path class="cls-1" d="M83.81,53.48S82.81,43,72.89,42c-8-.79-13.62,6.1-13.62,6.1a11.62,11.62,0,0,0-9.18,4C44.79,58.27,44,69.79,52.52,75c6.38,3.91,12.21,3.17,16.37.33a9.94,9.94,0,0,0,4.67-8.84v-.08a8,8,0,0,0-.15-1.25c0-.27-.11-.55-.18-.83a3.19,3.19,0,0,0-1.09-1.65,7.47,7.47,0,0,0-9,.2,6.4,6.4,0,0,0-1.3,1.4c-.12.17-1.91.09-1.94-.39S58.68,52.27,72,55.51s8.63,25.32-3,29.28c-7.73,2.62-37.72,6.33-31.36-48.21,0,0-21.56,38.83,3.56,55.46,27.45,18.16,46.45-4,50.76-15C94.81,69.69,96.26,56.91,83.81,53.48Z" transform="translate(0 0.03)"/>
    <path class="cls-1" d="M53.72,25.36C36.33,32.27,38.65,48.74,38.65,48.74c9.81-16.11,25.12-16.38,25.12-16.38-12.75,6-15,11.25-15,11.25C64.41,45.94,77.42,33.2,77.42,33.2l10.78-.7S76.08,16.5,53.72,25.36Z" transform="translate(0 0.03)"/>
    <path class="cls-1" d="M73.56,66.46a6.57,6.57,0,0,0-.15-1.25,5.86,5.86,0,1,0,.15,1.33Z" transform="translate(0 0.03)"/>
  </g>
  <g class="cls-2">
    <path class="cls-1" d="M153.09,33.34q4.4,1.75,14.64.58c.59,0,1-.39,1.18-1.17V30.41c0-2.35,2-2.93,5.86-1.76,1.95.78,2.93,2,2.93,3.52-.2,1.36.38,1.95,1.75,1.75h11.14q3.79-2.34,6.44-.58a3.42,3.42,0,0,1,.88,4.39c-.39.4-.49,1.47-.29,3.22q-.3,4.69-2.35,5c-2.15.78-3.12-.49-2.93-3.81a4,4,0,0,0-4.1-4.1h-12.3q1.76,4.09-1.76,7.32a15.63,15.63,0,0,0,6.45,1.76q22.26,1.17,28.71,0a1,1,0,0,1,1.17,1.17q-1.17,10-10.55,7a118.08,118.08,0,0,0-17.58-3.52q0,6.75-2.34,9.67a158.41,158.41,0,0,0,17,7A2.86,2.86,0,0,1,198.79,72c-.59,1-1.76,1.17-3.52.59a150.13,150.13,0,0,1-18.16-6.45h-.59Q165.39,73.47,156,72.6a7.26,7.26,0,0,1-5.28-2.35q-1.76-2,.88-2.34,12.3,0,18.17-4.4-11.73-4.68-7.91-10.84c.19-.19,0-.39-.59-.58a56.82,56.82,0,0,0-18.46,5,2.15,2.15,0,0,1-2.93-.59,2.83,2.83,0,0,1,.3-3.22q3.21-5.57,7.32-4.1,6.73-.58,15.53-1.76,1.75,0,4.68-3.52a10.78,10.78,0,0,0,2.35-4.39A1.87,1.87,0,0,0,168.91,38a6.72,6.72,0,0,1-2,.29c-5.09.39-8,.49-8.79.29-1.57.2-2.25,1-2,2.34v3.52a3.55,3.55,0,0,1-3.23,3.22,2.33,2.33,0,0,1-2.63-2.63,30.35,30.35,0,0,0-.59-4.4V36.85C150,34.71,151.13,33.53,153.09,33.34Zm15.23,20.51c.39,2.93,2.15,4.68,5.27,5.27q2.35-1.17,2.35-5.86c-.2-1-1-1.56-2.35-1.76h-2.93A2.53,2.53,0,0,0,168.32,53.85Z" transform="translate(0 0.03)"/>
    <path class="cls-1" d="M216.66,35.39q12.89-.59,20.22-4.4a3.83,3.83,0,0,1,2.63-.58c.59.2.88.78.88,1.76q-.3,3.22-6.44,7v2.93q4.4-3.81,8.2-3.23a10.4,10.4,0,0,0,5,0q7.32-.28,17.28,0,9.68.3,17.58.88c1.76.4,2.83.88,3.22,1.47.39.39.2,1.27-.58,2.63q-3.22,5.28-11.43,2.35a71.38,71.38,0,0,0-9.66-2,59.94,59.94,0,0,0-11.43-.88,72,72,0,0,0-12.6,2.34c-2.74.79-4.59.59-5.56-.58q0,11.13-.3,15.23v8.5q-.59,5-4.68,5.56c-2.35.4-3.42-1.26-3.23-5q0-2.34.3-9.67c.38-6.63.68-12,.87-16.11a3.4,3.4,0,0,0-1.17-1.17q-9.37,3.22-11.13-2.93C213.24,37,213.92,35.59,216.66,35.39Zm29.88,38.38q-4.68,2.34-5.56-2.35a36.07,36.07,0,0,1-.88-9.66q-.3-5,5-3.52c.19.39,1.17.39,2.93,0a68.35,68.35,0,0,1,15.53,0,6.1,6.1,0,0,0,3.8,0c3.91-1.36,6.06-.1,6.45,3.81-.2,1-.49,2.44-.88,4.39a19.38,19.38,0,0,0-.59,4.69q-2,5.57-6.44,2.05c-.39-.58-3.71-.88-10-.88C251.42,72.3,248.3,72.79,246.54,73.77Zm-3.22-19.92c1.17-2,2.73-2.74,4.69-2.35.58.4,1.85.49,3.81.29h7.61c2.93.2,6.55.49,10.84.88.78.2,1,.79.59,1.76a2.09,2.09,0,0,1-2.34,1.17q-17.58-1.17-23.44.59c-1,.39-1.66.29-2.05-.29A1.66,1.66,0,0,1,243.32,53.85ZM246.25,50a2.72,2.72,0,0,1-1.76,0q-.59-.59.3-1.47,1.76-3.21,4.39-2.93a5,5,0,0,0,2.93.3,103.87,103.87,0,0,1,15.23.87,1.36,1.36,0,0,1,.88,1.47c-.19.39-.68.58-1.46.58-7,0-11.72.11-14.06.3A58.23,58.23,0,0,0,246.25,50ZM248,67.91a61.81,61.81,0,0,1,17,0c.78.58,1.46-.1,2.05-2a2.13,2.13,0,0,0-1.46-2.64,70.84,70.84,0,0,0-18.17,0q-1.47.59-1.17,2.64C246.44,67.61,247,68.3,248,67.91Zm3.51-31.64c-3.12-.78-4.2-2.54-3.22-5.28q2.64-3.51,6.74-1.17a18.2,18.2,0,0,0,6.44,4.69c1.37.78,1.95,1.46,1.76,2.05s-1.17.88-2.93.88a20.59,20.59,0,0,1-5,0A12.43,12.43,0,0,1,251.52,36.27Z" transform="translate(0 0.03)"/>
    <path class="cls-1" d="M303.38,41.54A60.12,60.12,0,0,1,309.24,31a3.94,3.94,0,0,1,4.69-1.46c1.75,1.17,2.14,2.64,1.17,4.39l-5.28,8.21a2.26,2.26,0,0,0,2.64.58c2.73-1.17,4.69-1.17,5.86,0,1,1.17,1.07,3.33.29,6.45a78.32,78.32,0,0,1-4.68,11.13c.58,1.57,2.14,3,4.68,4.4a2.19,2.19,0,0,1,.59,3.22c-.78,1-1.86,1.07-3.22.29a37.13,37.13,0,0,1-5.57-3.81q-5.28,4.69-14.65,7a5.52,5.52,0,0,1-4.69-1.75q-1.76-2.64,1.18-3.52,9.38-1.45,14.35-5-5.87-5.56-5-12.6a1,1,0,0,0-1.17-1.17,20,20,0,0,0-8.2,1.46q-2.06.89-2.64.3c-.39-.39-.49-1.27-.29-2.64q1.46-5,6.44-4.1Q301.33,43.89,303.38,41.54Zm3.51,9.38c0,2.15,1.37,3.9,4.11,5.27a14.46,14.46,0,0,0,1.75-7A1.55,1.55,0,0,0,311,47.4Q306.89,47.4,306.89,50.92Zm17,.58c-1,.2-1.57,0-1.76-.58a3.41,3.41,0,0,1,1.17-2.35,13.33,13.33,0,0,1,4.4-1.17,40.75,40.75,0,0,1,8.49-.59,110.47,110.47,0,0,1,14.65,1.47c.78.2,1.17.58,1.17,1.17s-.39.88-1.17.88c-1.95.59-5.47.78-10.55.59-1.56,1-1.56,1.95,0,2.93q8.2,1.17,19.34,1.75c.78,0,1,.49.58,1.47q-3.22,6.45-9.66,3.51a2.47,2.47,0,0,1-1.17-.29Q343.52,58,340.29,58c-1.17,0-2,.88-2.34,2.63q-2.64,9.09-12.31,12-6.74,1.45-9.66.29c-1.37-.19-2.15-.59-2.35-1.17.2-.78,1-1.37,2.35-1.76q13.77-2.64,14.94-11.43a67.62,67.62,0,0,0-10.84,1.17c-1.17.2-2,.11-2.35-.29s-.39-1.17,0-2.34q1.17-3.23,5-2.35,1.77.6,8.79-.29c.78,0,1-1,.59-2.93A19.32,19.32,0,0,0,323.89,51.5Zm.58-7.62a26.82,26.82,0,0,1-1.76-7.61q.3-6.45,5.86-5.57A45.21,45.21,0,0,0,345,31.87c3.12-.58,4.69.1,4.69,2.05a52.29,52.29,0,0,0-.29,5.28c-.2,1.75-.4,3.12-.59,4.1q-.89,3.81-5,1.76h-.88a2,2,0,0,0-1.47-.59,61.22,61.22,0,0,0-12,1.17Q325.05,46.52,324.47,43.88Zm19.34-5.27c0-2.34-.78-3.51-2.35-3.51h-10c-1.56.19-2.34.78-2.34,1.75V39.2c0,1.17,1,1.75,2.93,1.75h8.79C342.83,41,343.81,40.18,343.81,38.61Zm10,35.45a43.14,43.14,0,0,1-13.48-7q-3.23-2.64-.58-5.27,2-2.05,5.27.29a77.19,77.19,0,0,0,10,10c1,1,1.37,1.66,1.17,2Q355.53,74.95,353.77,74.06Z" transform="translate(0 0.03)"/>
    <path class="cls-1" d="M364.9,65.86a54.78,54.78,0,0,0,21.39-12q4.09-2.35,5.27,2.93,0,2-3.51,4.1-14.35,8.79-22.85,8.49a2.2,2.2,0,0,1-2.06-1.76C363.14,67,363.73,66.44,364.9,65.86Zm13.77-36.62a9,9,0,0,1,2.93,1.17,3.2,3.2,0,0,0,2.93,1.17q11.13.89,28.13-3.52a4.16,4.16,0,0,1,4.1,1.76c.78,2.15.78,3.33,0,3.52A95.41,95.41,0,0,1,402.4,34.8q-7.62.6-19.63.3c-1.56,0-2.44,1.07-2.63,3.22a17.52,17.52,0,0,1-.3,2.34,18.83,18.83,0,0,0-.29,2.35q-1.17,4.4,2.05,4.39,9.67.3,12.31-.59c1.17-.19,1.75-1,1.75-2.34V39.78q-.29-2.34,3.52-2.34a4,4,0,0,1,4.1,4.1v4.1c0,.79.19,1.17.59,1.17a40.42,40.42,0,0,0,8.49.3,45.37,45.37,0,0,1,5.86.29h4.4q2.92,2.64.58,4.1h-9.66c-3.91-.19-7.14-.39-9.67-.58a.51.51,0,0,0-.59.58q.29,4.11.29,7.62c.2,2,.3,4.69.3,8.2-.4,3.91-2.93,6-7.62,6.15q-6.75-.57-10.55-7c-.58-.78-.39-1.26.59-1.46q6.43,3.81,9.67-.59.59-1.45.29-12.3a1,1,0,0,0-1.17-1.17H385.7a21,21,0,0,0-5.56,1.46Q372.52,55,373.4,50q2-9.37,1.76-12.6C374,32.17,375.16,29.43,378.67,29.24Zm51,42.77q-4.11.58-15.82-10.25A30.73,30.73,0,0,0,408.26,58q-3.22-1.17-1.76-3.23,1.47-1.45,5-.29c.59.39.78.49.59.29,1.56.79,3,1.57,4.39,2.35a87.68,87.68,0,0,0,19.63,7.32Q434.34,72.31,429.65,72Z" transform="translate(0 0.03)"/>
  </g>
  <g class="cls-2">
    <g class="cls-2">
      <path class="cls-3" d="M166.68,100.85l5.5-14.32h2l5.87,14.32h-2.16l-1.67-4.34h-6l-1.58,4.34ZM170.81,95h4.86l-1.5-4c-.45-1.2-.79-2.19-1-3a18.38,18.38,0,0,1-.77,2.74Z" transform="translate(0 0.03)"/>
      <path class="cls-3" d="M185.38,100.85V90.47H187V92a3.72,3.72,0,0,1,3.3-1.71,4.27,4.27,0,0,1,1.73.34,2.7,2.7,0,0,1,1.17.88,3.24,3.24,0,0,1,.55,1.3,9.58,9.58,0,0,1,.1,1.71v6.38h-1.76V94.54a5,5,0,0,0-.2-1.61,1.72,1.72,0,0,0-.73-.85,2.35,2.35,0,0,0-1.23-.32,2.84,2.84,0,0,0-1.94.72,3.51,3.51,0,0,0-.81,2.7v5.67Z" transform="translate(0 0.03)"/>
      <path class="cls-3" d="M199.34,100.85l3.79-5.39-3.51-5h2.2l1.59,2.44c.3.46.54.85.72,1.16.29-.43.55-.81.79-1.14l1.75-2.46h2.1l-3.58,4.89,3.86,5.49h-2.16l-2.13-3.22-.57-.87-2.72,4.09Z" transform="translate(0 0.03)"/>
      <path class="cls-3" d="M214.52,88.55v-2h1.76v2Zm0,12.3V90.47h1.76v10.38Z" transform="translate(0 0.03)"/>
      <path class="cls-3" d="M223,100.85V90.47h1.59V92a3.72,3.72,0,0,1,3.3-1.71,4.23,4.23,0,0,1,1.72.34,2.68,2.68,0,0,1,1.18.88,3.55,3.55,0,0,1,.55,1.3,11,11,0,0,1,.09,1.71v6.38h-1.75V94.54a4.66,4.66,0,0,0-.21-1.61,1.72,1.72,0,0,0-.73-.85,2.31,2.31,0,0,0-1.22-.32,2.83,2.83,0,0,0-1.94.72,3.47,3.47,0,0,0-.82,2.7v5.67Z" transform="translate(0 0.03)"/>
      <path class="cls-3" d="M257.48,100.85V86.53h10.36v1.69h-8.46V92.6h7.92v1.68h-7.92v4.88h8.79v1.69Z" transform="translate(0 0.03)"/>
      <path class="cls-3" d="M274.56,100.85V90.47h1.59V92a3.72,3.72,0,0,1,3.3-1.71,4.19,4.19,0,0,1,1.72.34,2.68,2.68,0,0,1,1.18.88,3.55,3.55,0,0,1,.55,1.3,10.66,10.66,0,0,1,.1,1.71v6.38h-1.76V94.54a4.66,4.66,0,0,0-.21-1.61,1.67,1.67,0,0,0-.73-.85,2.29,2.29,0,0,0-1.22-.32,2.83,2.83,0,0,0-1.94.72,3.51,3.51,0,0,0-.82,2.7v5.67Z" transform="translate(0 0.03)"/>
      <path class="cls-3" d="M293.54,99.28l.25,1.55a6.22,6.22,0,0,1-1.33.16,2.89,2.89,0,0,1-1.48-.31,1.68,1.68,0,0,1-.75-.79,6.45,6.45,0,0,1-.21-2.08v-6h-1.29V90.47H290V87.9l1.75-1.05v3.62h1.77v1.37h-1.77v6.07a3.22,3.22,0,0,0,.09,1,.75.75,0,0,0,.3.34,1.21,1.21,0,0,0,.6.13A6.93,6.93,0,0,0,293.54,99.28Z" transform="translate(0 0.03)"/>
      <path class="cls-3" d="M306.36,97.51l1.82.22a4.44,4.44,0,0,1-1.6,2.48,4.8,4.8,0,0,1-3,.87,4.74,4.74,0,0,1-3.61-1.4,5.5,5.5,0,0,1-1.33-3.93A5.7,5.7,0,0,1,300,91.69a4.54,4.54,0,0,1,3.5-1.45,4.43,4.43,0,0,1,3.4,1.42,5.61,5.61,0,0,1,1.32,4c0,.11,0,.26,0,.47h-7.74a4,4,0,0,0,1,2.62,2.86,2.86,0,0,0,2.16.91,2.71,2.71,0,0,0,1.66-.51A3.44,3.44,0,0,0,306.36,97.51Zm-5.77-2.84h5.79a3.5,3.5,0,0,0-.67-2,2.66,2.66,0,0,0-2.17-1,2.8,2.8,0,0,0-2,.81A3.16,3.16,0,0,0,300.59,94.67Z" transform="translate(0 0.03)"/>
      <path class="cls-3" d="M314.37,100.85V90.47H316v1.58a4.31,4.31,0,0,1,1.12-1.46,2,2,0,0,1,1.13-.35,3.45,3.45,0,0,1,1.81.57l-.61,1.63a2.46,2.46,0,0,0-1.29-.38,1.71,1.71,0,0,0-1,.34,2,2,0,0,0-.65,1,6.68,6.68,0,0,0-.29,2v5.43Z" transform="translate(0 0.03)"/>
      <path class="cls-3" d="M328.89,99.28l.26,1.55a6.22,6.22,0,0,1-1.33.16,2.93,2.93,0,0,1-1.49-.31,1.66,1.66,0,0,1-.74-.79,6.45,6.45,0,0,1-.21-2.08v-6h-1.3V90.47h1.3V87.9l1.74-1.05v3.62h1.77v1.37h-1.77v6.07a3.11,3.11,0,0,0,.1,1,.75.75,0,0,0,.3.34,1.21,1.21,0,0,0,.6.13A6.79,6.79,0,0,0,328.89,99.28Z" transform="translate(0 0.03)"/>
      <path class="cls-3" d="M341.38,99.57a6.33,6.33,0,0,1-1.88,1.17,5.38,5.38,0,0,1-1.94.34,3.73,3.73,0,0,1-2.62-.83,2.94,2.94,0,0,1-.57-3.53,2.93,2.93,0,0,1,.9-1,4.75,4.75,0,0,1,1.27-.58,14.11,14.11,0,0,1,1.56-.26,16.6,16.6,0,0,0,3.14-.6c0-.25,0-.4,0-.46a2,2,0,0,0-.5-1.52,2.93,2.93,0,0,0-2-.6,3.08,3.08,0,0,0-1.83.44,2.63,2.63,0,0,0-.88,1.54l-1.72-.24a4.29,4.29,0,0,1,.77-1.78,3.38,3.38,0,0,1,1.56-1,6.74,6.74,0,0,1,2.35-.37,6.18,6.18,0,0,1,2.16.31,2.84,2.84,0,0,1,1.22.79,2.78,2.78,0,0,1,.55,1.2,9.67,9.67,0,0,1,.09,1.62V96.5a23.91,23.91,0,0,0,.11,3.1,3.81,3.81,0,0,0,.44,1.25h-1.83A3.7,3.7,0,0,1,341.38,99.57Zm-.14-3.93a13.42,13.42,0,0,1-2.87.67,6.44,6.44,0,0,0-1.54.35,1.5,1.5,0,0,0-.69.57,1.53,1.53,0,0,0-.25.84,1.49,1.49,0,0,0,.54,1.17,2.29,2.29,0,0,0,1.56.47,3.59,3.59,0,0,0,1.8-.45A2.73,2.73,0,0,0,341,98.05a4.44,4.44,0,0,0,.28-1.76Z" transform="translate(0 0.03)"/>
      <path class="cls-3" d="M349.75,88.55v-2h1.76v2Zm0,12.3V90.47h1.76v10.38Z" transform="translate(0 0.03)"/>
      <path class="cls-3" d="M358.19,100.85V90.47h1.59V92a3.72,3.72,0,0,1,3.3-1.71,4.23,4.23,0,0,1,1.72.34,2.68,2.68,0,0,1,1.18.88,3.55,3.55,0,0,1,.55,1.3,11,11,0,0,1,.09,1.71v6.38h-1.75V94.54a4.66,4.66,0,0,0-.21-1.61,1.72,1.72,0,0,0-.73-.85,2.34,2.34,0,0,0-1.22-.32,2.83,2.83,0,0,0-1.94.72,3.47,3.47,0,0,0-.82,2.7v5.67Z" transform="translate(0 0.03)"/>
      <path class="cls-3" d="M373.32,100.85V90.47h1.58v1.46a3.66,3.66,0,0,1,1.3-1.23,3.62,3.62,0,0,1,1.84-.46,3.4,3.4,0,0,1,1.89.48,2.54,2.54,0,0,1,1,1.34,3.73,3.73,0,0,1,3.21-1.82,3.14,3.14,0,0,1,2.37.85,3.64,3.64,0,0,1,.83,2.64v7.12h-1.75V94.31a4.67,4.67,0,0,0-.17-1.52,1.44,1.44,0,0,0-.62-.74,1.92,1.92,0,0,0-1-.29,2.48,2.48,0,0,0-1.82.73,3.22,3.22,0,0,0-.72,2.33v6h-1.76V94.11a3,3,0,0,0-.43-1.76,1.64,1.64,0,0,0-1.41-.59,2.56,2.56,0,0,0-1.37.39,2.19,2.19,0,0,0-.91,1.15,6.36,6.36,0,0,0-.29,2.17v5.38Z" transform="translate(0 0.03)"/>
      <path class="cls-3" d="M401.1,97.51l1.81.22a4.38,4.38,0,0,1-1.59,2.48,4.8,4.8,0,0,1-3,.87,4.72,4.72,0,0,1-3.61-1.4,5.45,5.45,0,0,1-1.33-3.93,5.7,5.7,0,0,1,1.35-4.06,4.52,4.52,0,0,1,3.49-1.45,4.42,4.42,0,0,1,3.4,1.42,5.61,5.61,0,0,1,1.32,4c0,.11,0,.26,0,.47h-7.74a4,4,0,0,0,1,2.62,2.86,2.86,0,0,0,2.17.91,2.66,2.66,0,0,0,1.65-.51A3.38,3.38,0,0,0,401.1,97.51Zm-5.78-2.84h5.8a3.5,3.5,0,0,0-.67-2,2.67,2.67,0,0,0-2.18-1,2.77,2.77,0,0,0-2,.81A3.21,3.21,0,0,0,395.32,94.67Z" transform="translate(0 0.03)"/>
      <path class="cls-3" d="M409.12,100.85V90.47h1.59V92a3.72,3.72,0,0,1,3.3-1.71,4.23,4.23,0,0,1,1.72.34,2.68,2.68,0,0,1,1.18.88,3.55,3.55,0,0,1,.55,1.3,10.66,10.66,0,0,1,.1,1.71v6.38H415.8V94.54a4.66,4.66,0,0,0-.21-1.61,1.67,1.67,0,0,0-.73-.85,2.29,2.29,0,0,0-1.22-.32,2.83,2.83,0,0,0-1.94.72,3.47,3.47,0,0,0-.82,2.7v5.67Z" transform="translate(0 0.03)"/>
      <path class="cls-3" d="M428.09,99.28l.26,1.55A6.22,6.22,0,0,1,427,101a2.89,2.89,0,0,1-1.48-.31,1.68,1.68,0,0,1-.75-.79,6.45,6.45,0,0,1-.21-2.08v-6h-1.29V90.47h1.29V87.9l1.75-1.05v3.62h1.76v1.37h-1.76v6.07a3.22,3.22,0,0,0,.09,1,.75.75,0,0,0,.3.34,1.21,1.21,0,0,0,.6.13A6.59,6.59,0,0,0,428.09,99.28Z" transform="translate(0 0.03)"/>
    </g>
    <g class="cls-2">
      <path class="cls-3" d="M459.71,85.41V101h-2.28V85.41Zm6.16,0V101h-2.28V85.41Z" transform="translate(0 0.03)"/>
    </g>
  </g>
  <g class="cls-2">
    <path class="cls-3" d="M441.64,71.25V70.08h4.3V33.36h-4.3V32h26.18v1.37h-4.3V70.08h4.3v1.17Zm17-1.17V33.36l-7.82.2V70.08Z" transform="translate(0 0.03)"/>
  </g>
</svg>
